<?xml version="1.0" encoding="utf-8"?>
<!-- Generator: Adobe Illustrator 26.0.0, SVG Export Plug-In . SVG Version: 6.00 Build 0)  -->
<svg version="1.1" id="Capa_1" xmlns="http://www.w3.org/2000/svg" xmlns:xlink="http://www.w3.org/1999/xlink" x="0px" y="0px"
	 viewBox="0 0 800 256" style="enable-background:new 0 0 800 256;" xml:space="preserve">
<style type="text/css">
	.st0{fill:#010002;}
</style>
<g>
	<g>
		<path class="st0" d="M707.3,186.7h69c12.5,0,22.7-10.2,22.7-22.7V92c0-12.5-10.2-22.7-22.7-22.7h-69V186.7z"/>
		<path class="st0" d="M565.1,216.5c17.4-21.7,30.1-35.9,48.3-35.9h53.9V75.4h-53.9c-18.1,0-30.9-14.2-48.3-35.9
			C550.2,21,533.3,0,507.2,0H388.7v128H172.1V-0.1H25.5C10.9-0.1-1,11.8-1,26.4v203.1c0,14.6,11.9,26.5,26.5,26.5h481.7
			C533.3,256.1,550.2,235,565.1,216.5z"/>
	</g>
</g>
</svg>
